<?xml version="1.0" encoding="utf-8"?>
<!-- Generator: Adobe Illustrator 22.1.0, SVG Export Plug-In . SVG Version: 6.00 Build 0)  -->
<svg version="1.1" id="Layer_1" xmlns="http://www.w3.org/2000/svg" xmlns:xlink="http://www.w3.org/1999/xlink" x="0px" y="0px"
	 viewBox="0 0 144 144" style="enable-background:new 0 0 144 144;" xml:space="preserve">
<style type="text/css">
	.st0{fill:#666766;}
</style>
<g>
	<rect x="26.2" y="26.2" class="st0" width="91.6" height="13.1"/>
	<rect x="26.2" y="52.4" class="st0" width="39.3" height="13.1"/>
	<path class="st0" d="M136.8,0H0v144h136.8c4,0,7.2-3.2,7.2-7.2V85.7c0-4-3.2-7.2-7.2-7.2H26.2v13.1h104.7v39.3H13.1V13.1h117.8
		v39.3H78.6v13.1h58.2c4,0,7.2-3.2,7.2-7.2V7.2C144,3.2,140.8,0,136.8,0z"/>
	<rect x="26.2" y="104.7" class="st0" width="39.3" height="13.1"/>
	<rect x="78.5" y="104.7" class="st0" width="39.3" height="13.1"/>
</g>
</svg>
